REM DIRINDEX 1\2\6,1\2\7,1\2\8,1\2\9,1\3\10,1\3\11,1\4\12,1\4\13,1\4\14,1\5\15,1\5\16,1\5\17
REM DIRNAME cjc029,folder01,folder02,folder03,folder04,folder05,folder06,folder07,folder08,folder09,folder10,folder11,folder12,folder13,folder14,folder15,folder16
TITLE ""
FILE "1400_3_sec04_0317_0333.mp3" MP3
  TRACK 01 AUDIO
    TITLE "0:"
    INDEX 01 00:00:00
  TRACK 02 AUDIO
    TITLE "17:cjc029_5063"
    INDEX 01 00:00:17
  TRACK 03 AUDIO
    TITLE "0:"
    INDEX 01 00:01:26
  TRACK 04 AUDIO
    TITLE "16:cjc029_5064"
    INDEX 01 00:01:30
  TRACK 05 AUDIO
    TITLE "0:"
    INDEX 01 00:02:53
  TRACK 06 AUDIO
    TITLE "17:cjc029_5065"
    INDEX 01 00:03:39
  TRACK 07 AUDIO
    TITLE "0:"
    INDEX 01 00:06:20
  TRACK 08 AUDIO
    TITLE "16:cjc029_5066"
    INDEX 01 00:06:26
  TRACK 09 AUDIO
    TITLE "0:"
    INDEX 01 00:07:35
  TRACK 10 AUDIO
    TITLE "17:cjc029_5067"
    INDEX 01 00:08:21
  TRACK 11 AUDIO
    TITLE "0:"
    INDEX 01 00:12:26
  TRACK 12 AUDIO
    TITLE "16:cjc029_5068"
    INDEX 01 00:12:32
  TRACK 13 AUDIO
    TITLE "0:"
    INDEX 01 00:13:35
  TRACK 14 AUDIO
    TITLE "17:cjc029_5069"
    INDEX 01 00:14:17
  TRACK 15 AUDIO
    TITLE "0:"
    INDEX 01 00:15:15
  TRACK 16 AUDIO
    TITLE "16:cjc029_5070"
    INDEX 01 00:15:23
  TRACK 17 AUDIO
    TITLE "0:"
    INDEX 01 00:16:44
  TRACK 18 AUDIO
    TITLE "17:cjc029_5071"
    INDEX 01 00:17:25
  TRACK 19 AUDIO
    TITLE "0:"
    INDEX 01 00:18:48
  TRACK 20 AUDIO
    TITLE "16:cjc029_5072"
    INDEX 01 00:18:54
  TRACK 21 AUDIO
    TITLE "0:"
    INDEX 01 00:19:63
  TRACK 22 AUDIO
    TITLE "17:cjc029_5073"
    INDEX 01 00:20:49
  TRACK 23 AUDIO
    TITLE "0:"
    INDEX 01 00:21:58
  TRACK 24 AUDIO
    TITLE "16:cjc029_5074"
    INDEX 01 00:21:62
  TRACK 25 AUDIO
    TITLE "0:"
    INDEX 01 00:23:03
  TRACK 26 AUDIO
    TITLE "17:cjc029_5075"
    INDEX 01 00:23:65
  TRACK 27 AUDIO
    TITLE "0:"
    INDEX 01 00:25:54
  TRACK 28 AUDIO
    TITLE "16:cjc029_5076"
    INDEX 01 00:25:58
  TRACK 29 AUDIO
    TITLE "0:"
    INDEX 01 00:27:08
  TRACK 30 AUDIO
    TITLE "17:cjc029_5077"
    INDEX 01 00:27:73
  TRACK 31 AUDIO
    TITLE "0:"
    INDEX 01 00:31:06
  TRACK 32 AUDIO
    TITLE "16:cjc029_5078"
    INDEX 01 00:31:12
  TRACK 33 AUDIO
    TITLE "0:"
    INDEX 01 00:32:39
  TRACK 34 AUDIO
    TITLE "17:cjc029_5079"
    INDEX 01 00:33:22
  TRACK 35 AUDIO
    TITLE "0:"
    INDEX 01 00:34:63
  TRACK 36 AUDIO
    TITLE "16:cjc029_5080"
    INDEX 01 00:34:69
  TRACK 37 AUDIO
    TITLE "0:"
    INDEX 01 00:36:17
  TRACK 38 AUDIO
    TITLE "17:cjc029_5081"
    INDEX 01 00:37:01
  TRACK 39 AUDIO
    TITLE "0:"
    INDEX 01 00:38:24
  TRACK 40 AUDIO
    TITLE "16:cjc029_5082"
    INDEX 01 00:38:30
  TRACK 41 AUDIO
    TITLE "0:"
    INDEX 01 00:39:45
  TRACK 42 AUDIO
    TITLE "17:cjc029_5083"
    INDEX 01 00:40:30
  TRACK 43 AUDIO
    TITLE "0:"
    INDEX 01 00:41:38
  TRACK 44 AUDIO
    TITLE "16:cjc029_5084"
    INDEX 01 00:41:44
  TRACK 45 AUDIO
    TITLE "0:"
    INDEX 01 00:42:51
  TRACK 46 AUDIO
    TITLE "17:cjc029_5085"
    INDEX 01 00:43:35
  TRACK 47 AUDIO
    TITLE "0:"
    INDEX 01 00:44:73
  TRACK 48 AUDIO
    TITLE "16:cjc029_5086"
    INDEX 01 00:45:02
  TRACK 49 AUDIO
    TITLE "0:"
    INDEX 01 00:46:27
  TRACK 50 AUDIO
    TITLE "17:cjc029_5087"
    INDEX 01 00:47:11
  TRACK 51 AUDIO
    TITLE "0:"
    INDEX 01 00:50:27
  TRACK 52 AUDIO
    TITLE "16:cjc029_5088"
    INDEX 01 00:50:31
  TRACK 53 AUDIO
    TITLE "0:"
    INDEX 01 00:51:44
  TRACK 54 AUDIO
    TITLE "17:cjc029_5089"
    INDEX 01 00:52:32
  TRACK 55 AUDIO
    TITLE "0:"
    INDEX 01 00:54:15
  TRACK 56 AUDIO
    TITLE "16:cjc029_5090"
    INDEX 01 00:54:27
  TRACK 57 AUDIO
    TITLE "0:"
    INDEX 01 00:55:20
  TRACK 58 AUDIO
    TITLE "17:cjc029_5091"
    INDEX 01 00:56:08
  TRACK 59 AUDIO
    TITLE "0:"
    INDEX 01 00:57:27
  TRACK 60 AUDIO
    TITLE "16:cjc029_5092"
    INDEX 01 00:57:33
  TRACK 61 AUDIO
    TITLE "0:"
    INDEX 01 00:58:48
  TRACK 62 AUDIO
    TITLE "17:cjc029_5093"
    INDEX 01 00:59:36
  TRACK 63 AUDIO
    TITLE "0:"
    INDEX 01 01:00:70
  TRACK 64 AUDIO
    TITLE "16:cjc029_5094"
    INDEX 01 01:01:01
  TRACK 65 AUDIO
    TITLE "0:"
    INDEX 01 01:02:10
  TRACK 66 AUDIO
    TITLE "17:cjc029_5095"
    INDEX 01 01:02:71
  TRACK 67 AUDIO
    TITLE "0:"
    INDEX 01 01:04:15
  TRACK 68 AUDIO
    TITLE "16:cjc029_5096"
    INDEX 01 01:04:19
  TRACK 69 AUDIO
    TITLE "0:"
    INDEX 01 01:05:32
